<?xml version="1.0" encoding="UTF-8" standalone="no"?>
<!DOCTYPE svg PUBLIC "-//W3C//DTD SVG 1.1//EN"
 "http://www.w3.org/Graphics/SVG/1.1/DTD/svg11.dtd">
<!-- Generated by graphviz version 2.43.0 (0)
 -->
<!-- Title: flowchart Pages: 1 -->
<svg width="1103pt" height="897pt"
 viewBox="0.00 0.00 1102.60 897.20" xmlns="http://www.w3.org/2000/svg" xmlns:xlink="http://www.w3.org/1999/xlink">
<g id="graph0" class="graph" transform="scale(1 1) rotate(0) translate(4 893.2)">
<title>flowchart</title>
<polygon fill="white" stroke="transparent" points="-4,4 -4,-893.2 1098.6,-893.2 1098.6,4 -4,4"/>
<!-- p0 -->
<g id="node1" class="node">
<title>p0</title>
<ellipse fill="black" stroke="black" cx="103.6" cy="-812.4" rx="3.6" ry="3.6"/>
<text text-anchor="middle" x="50" y="-819.8" font-family="Times,serif" font-size="14.00">Channel.fromPath</text>
</g>
<!-- p1 -->
<g id="node2" class="node">
<title>p1</title>
<ellipse fill="none" stroke="black" cx="103.6" cy="-739.8" rx="3.5" ry="3.5"/>
<text text-anchor="middle" x="89.1" y="-747.1" font-family="Times,serif" font-size="14.00">into</text>
</g>
<!-- p0&#45;&gt;p1 -->
<g id="edge1" class="edge">
<title>p0&#45;&gt;p1</title>
<path fill="none" stroke="black" d="M103.6,-808.72C103.6,-799.81 103.6,-770.78 103.6,-753.69"/>
<polygon fill="black" stroke="black" points="107.1,-753.48 103.6,-743.48 100.1,-753.48 107.1,-753.48"/>
<text text-anchor="middle" x="131.1" y="-779.6" font-family="Times,serif" font-size="14.00">input_raw</text>
</g>
<!-- p21 -->
<g id="node3" class="node">
<title>p21</title>
<ellipse fill="none" stroke="black" cx="51.6" cy="-609.3" rx="3.5" ry="3.5"/>
<text text-anchor="middle" x="29.6" y="-616.6" font-family="Times,serif" font-size="14.00">collect</text>
</g>
<!-- p1&#45;&gt;p21 -->
<g id="edge2" class="edge">
<title>p1&#45;&gt;p21</title>
<path fill="none" stroke="black" d="M100.48,-737.86C90.99,-734.8 62.44,-724.16 51.6,-703.8 37.72,-677.72 43.57,-641.47 48.12,-622.68"/>
<polygon fill="black" stroke="black" points="51.56,-623.38 50.8,-612.81 44.8,-621.55 51.56,-623.38"/>
<text text-anchor="middle" x="88.6" y="-692.6" font-family="Times,serif" font-size="14.00">raws_msqrob</text>
</g>
<!-- p8 -->
<g id="node4" class="node">
<title>p8</title>
<ellipse fill="none" stroke="black" cx="159.6" cy="-652.8" rx="79.89" ry="18"/>
<text text-anchor="middle" x="159.6" y="-649.1" font-family="Times,serif" font-size="14.00">convert_raw_mzml</text>
</g>
<!-- p1&#45;&gt;p8 -->
<g id="edge3" class="edge">
<title>p1&#45;&gt;p8</title>
<path fill="none" stroke="black" d="M105.32,-736.64C109.6,-731.24 121.01,-716.63 129.6,-703.8 134.78,-696.06 140.11,-687.42 144.82,-679.54"/>
<polygon fill="black" stroke="black" points="147.95,-681.12 150,-670.72 141.92,-677.57 147.95,-681.12"/>
<text text-anchor="middle" x="176.1" y="-692.6" font-family="Times,serif" font-size="14.00">raws_convert</text>
</g>
<!-- p24 -->
<g id="node13" class="node">
<title>p24</title>
<ellipse fill="none" stroke="black" cx="376.6" cy="-159.6" rx="53.89" ry="18"/>
<text text-anchor="middle" x="376.6" y="-155.9" font-family="Times,serif" font-size="14.00">run_msqrob</text>
</g>
<!-- p21&#45;&gt;p24 -->
<g id="edge30" class="edge">
<title>p21&#45;&gt;p24</title>
<path fill="none" stroke="black" d="M51.6,-605.66C51.6,-595.21 51.6,-555.77 51.6,-523.3 51.6,-523.3 51.6,-523.3 51.6,-245.6 51.6,-192 219.14,-171.55 313.63,-164.28"/>
<polygon fill="black" stroke="black" points="313.95,-167.77 323.66,-163.54 313.43,-160.79 313.95,-167.77"/>
</g>
<!-- p12 -->
<g id="node14" class="node">
<title>p12</title>
<ellipse fill="none" stroke="black" cx="382.6" cy="-565.8" rx="87.18" ry="18"/>
<text text-anchor="middle" x="382.6" y="-562.1" font-family="Times,serif" font-size="14.00">run_searchgui_search</text>
</g>
<!-- p8&#45;&gt;p12 -->
<g id="edge12" class="edge">
<title>p8&#45;&gt;p12</title>
<path fill="none" stroke="black" d="M192.96,-636.28C215.73,-625.93 246.7,-612.36 274.6,-601.8 291.09,-595.56 309.24,-589.41 325.88,-584.04"/>
<polygon fill="black" stroke="black" points="327.01,-587.36 335.48,-580.98 324.89,-580.69 327.01,-587.36"/>
<text text-anchor="middle" x="323.1" y="-605.6" font-family="Times,serif" font-size="14.00">mzmls_searchgui</text>
</g>
<!-- p18 -->
<g id="node15" class="node">
<title>p18</title>
<ellipse fill="none" stroke="black" cx="94.6" cy="-522.3" rx="3.5" ry="3.5"/>
<text text-anchor="middle" x="72.6" y="-529.6" font-family="Times,serif" font-size="14.00">collect</text>
</g>
<!-- p8&#45;&gt;p18 -->
<g id="edge13" class="edge">
<title>p8&#45;&gt;p18</title>
<path fill="none" stroke="black" d="M149,-634.91C145.56,-629.22 141.8,-622.8 138.6,-616.8 123.23,-587.99 107.48,-552.89 99.65,-535"/>
<polygon fill="black" stroke="black" points="102.79,-533.44 95.6,-525.66 96.37,-536.22 102.79,-533.44"/>
<text text-anchor="middle" x="187.1" y="-605.6" font-family="Times,serif" font-size="14.00">mzmls_flashLFQ</text>
</g>
<!-- p2 -->
<g id="node5" class="node">
<title>p2</title>
<ellipse fill="black" stroke="black" cx="808.6" cy="-870.6" rx="3.6" ry="3.6"/>
<text text-anchor="middle" x="755" y="-878" font-family="Times,serif" font-size="14.00">Channel.fromPath</text>
</g>
<!-- p3 -->
<g id="node6" class="node">
<title>p3</title>
<ellipse fill="none" stroke="black" cx="808.6" cy="-812.4" rx="3.5" ry="3.5"/>
<text text-anchor="middle" x="794.1" y="-819.7" font-family="Times,serif" font-size="14.00">into</text>
</g>
<!-- p2&#45;&gt;p3 -->
<g id="edge4" class="edge">
<title>p2&#45;&gt;p3</title>
<path fill="none" stroke="black" d="M808.6,-866.89C808.6,-859.64 808.6,-839.48 808.6,-826.08"/>
<polygon fill="black" stroke="black" points="812.1,-825.95 808.6,-815.95 805.1,-825.95 812.1,-825.95"/>
<text text-anchor="middle" x="839.1" y="-837.8" font-family="Times,serif" font-size="14.00">input_fasta</text>
</g>
<!-- p5 -->
<g id="node7" class="node">
<title>p5</title>
<ellipse fill="black" stroke="black" cx="967.6" cy="-739.8" rx="1.8" ry="1.8"/>
</g>
<!-- p3&#45;&gt;p5 -->
<g id="edge5" class="edge">
<title>p3&#45;&gt;p5</title>
<path fill="none" stroke="black" d="M812.19,-811.25C830.98,-810.42 918.06,-805.8 939.6,-790.8 953.22,-781.32 960.97,-762.98 964.73,-751.34"/>
<polygon fill="black" stroke="black" points="968.1,-752.26 967.41,-741.69 961.36,-750.39 968.1,-752.26"/>
<text text-anchor="middle" x="1023.6" y="-779.6" font-family="Times,serif" font-size="14.00">input_fasta_peptideshaker</text>
</g>
<!-- p9 -->
<g id="node8" class="node">
<title>p9</title>
<ellipse fill="none" stroke="black" cx="618.6" cy="-739.8" rx="91.78" ry="18"/>
<text text-anchor="middle" x="618.6" y="-736.1" font-family="Times,serif" font-size="14.00">create_decoy_database</text>
</g>
<!-- p3&#45;&gt;p9 -->
<g id="edge6" class="edge">
<title>p3&#45;&gt;p9</title>
<path fill="none" stroke="black" d="M805.07,-811.26C780.8,-810.25 639,-803.85 625.6,-790.8 619.59,-784.95 617.1,-776.5 616.33,-768.2"/>
<polygon fill="black" stroke="black" points="619.82,-767.91 616.14,-757.98 612.82,-768.04 619.82,-767.91"/>
<text text-anchor="middle" x="702.1" y="-779.6" font-family="Times,serif" font-size="14.00">input_fasta_decoy_database</text>
</g>
<!-- p27 -->
<g id="node9" class="node">
<title>p27</title>
<ellipse fill="none" stroke="black" cx="619.6" cy="-72.6" rx="55.79" ry="18"/>
<text text-anchor="middle" x="619.6" y="-68.9" font-family="Times,serif" font-size="14.00">run_final_qc</text>
</g>
<!-- p3&#45;&gt;p27 -->
<g id="edge7" class="edge">
<title>p3&#45;&gt;p27</title>
<path fill="none" stroke="black" d="M807.55,-808.76C803.99,-799.54 792.6,-767.95 792.6,-740.8 792.6,-740.8 792.6,-740.8 792.6,-158.6 792.6,-108.2 732.71,-87.68 683.41,-79.33"/>
<polygon fill="black" stroke="black" points="683.81,-75.85 673.39,-77.77 682.73,-82.77 683.81,-75.85"/>
<text text-anchor="middle" x="832.6" y="-431.6" font-family="Times,serif" font-size="14.00">input_fasta_qc</text>
</g>
<!-- p4 -->
<g id="node10" class="node">
<title>p4</title>
<ellipse fill="black" stroke="black" cx="825.6" cy="-739.8" rx="1.8" ry="1.8"/>
</g>
<!-- p3&#45;&gt;p4 -->
<g id="edge8" class="edge">
<title>p3&#45;&gt;p4</title>
<path fill="none" stroke="black" d="M809.25,-808.72C811.48,-799.43 818.98,-768.29 823,-751.59"/>
<polygon fill="black" stroke="black" points="826.43,-752.3 825.37,-741.76 819.62,-750.66 826.43,-752.3"/>
<text text-anchor="middle" x="876.1" y="-779.6" font-family="Times,serif" font-size="14.00">input_fasta_searchgui</text>
</g>
<!-- p11 -->
<g id="node16" class="node">
<title>p11</title>
<ellipse fill="none" stroke="black" cx="499.6" cy="-652.8" rx="3.5" ry="3.5"/>
<text text-anchor="middle" x="519.1" y="-660.1" font-family="Times,serif" font-size="14.00">ifEmpty</text>
</g>
<!-- p9&#45;&gt;p11 -->
<g id="edge14" class="edge">
<title>p9&#45;&gt;p11</title>
<path fill="none" stroke="black" d="M540.22,-730.38C524.84,-725.05 510.44,-716.72 500.6,-703.8 492.49,-693.16 493.78,-677.23 496.09,-666.22"/>
<polygon fill="black" stroke="black" points="499.51,-666.99 498.69,-656.43 492.74,-665.19 499.51,-666.99"/>
<text text-anchor="middle" x="548.6" y="-692.6" font-family="Times,serif" font-size="14.00">fasta_with_decoy</text>
</g>
<!-- p13 -->
<g id="node17" class="node">
<title>p13</title>
<ellipse fill="none" stroke="black" cx="536.6" cy="-609.3" rx="3.5" ry="3.5"/>
<text text-anchor="middle" x="510.1" y="-616.6" font-family="Times,serif" font-size="14.00">ifEmpty</text>
</g>
<!-- p9&#45;&gt;p13 -->
<g id="edge15" class="edge">
<title>p9&#45;&gt;p13</title>
<path fill="none" stroke="black" d="M612.23,-721.64C608.27,-711.75 602.77,-699.25 596.6,-688.8 581.01,-662.42 557.96,-634.63 545.46,-620.24"/>
<polygon fill="black" stroke="black" points="547.72,-617.52 538.47,-612.35 542.48,-622.16 547.72,-617.52"/>
<text text-anchor="middle" x="655.1" y="-692.6" font-family="Times,serif" font-size="14.00">fasta_with_decoy2</text>
</g>
<!-- p29 -->
<g id="node29" class="node">
<title>p29</title>
<ellipse fill="black" stroke="black" cx="577.6" cy="-1.8" rx="1.8" ry="1.8"/>
</g>
<!-- p27&#45;&gt;p29 -->
<g id="edge38" class="edge">
<title>p27&#45;&gt;p29</title>
<path fill="none" stroke="black" d="M594.83,-56.12C588.39,-50.78 582.24,-44.2 578.6,-36.6 575.23,-29.56 575.09,-20.71 575.73,-13.83"/>
<polygon fill="black" stroke="black" points="579.23,-14.13 577.38,-3.7 572.32,-13.01 579.23,-14.13"/>
<text text-anchor="middle" x="609.1" y="-25.4" font-family="Times,serif" font-size="14.00">parameters</text>
</g>
<!-- p28 -->
<g id="node30" class="node">
<title>p28</title>
<ellipse fill="black" stroke="black" cx="661.6" cy="-1.8" rx="1.8" ry="1.8"/>
</g>
<!-- p27&#45;&gt;p28 -->
<g id="edge39" class="edge">
<title>p27&#45;&gt;p28</title>
<path fill="none" stroke="black" d="M629.98,-54.59C638.08,-41.32 649.05,-23.37 655.7,-12.46"/>
<polygon fill="black" stroke="black" points="658.89,-13.95 661.12,-3.59 652.92,-10.31 658.89,-13.95"/>
<text text-anchor="middle" x="682.1" y="-25.4" font-family="Times,serif" font-size="14.00">benchmarks</text>
</g>
<!-- p6 -->
<g id="node11" class="node">
<title>p6</title>
<ellipse fill="black" stroke="black" cx="664.6" cy="-319.2" rx="3.6" ry="3.6"/>
<text text-anchor="middle" x="611" y="-326.6" font-family="Times,serif" font-size="14.00">Channel.fromPath</text>
</g>
<!-- p7 -->
<g id="node12" class="node">
<title>p7</title>
<ellipse fill="none" stroke="black" cx="661.6" cy="-246.6" rx="3.5" ry="3.5"/>
<text text-anchor="middle" x="647.1" y="-253.9" font-family="Times,serif" font-size="14.00">into</text>
</g>
<!-- p6&#45;&gt;p7 -->
<g id="edge9" class="edge">
<title>p6&#45;&gt;p7</title>
<path fill="none" stroke="black" d="M664.49,-315.52C664.11,-306.61 662.87,-277.58 662.15,-260.49"/>
<polygon fill="black" stroke="black" points="665.64,-260.13 661.71,-250.28 658.64,-260.42 665.64,-260.13"/>
<text text-anchor="middle" x="694.6" y="-286.4" font-family="Times,serif" font-size="14.00">exp_design</text>
</g>
<!-- p7&#45;&gt;p27 -->
<g id="edge10" class="edge">
<title>p7&#45;&gt;p27</title>
<path fill="none" stroke="black" d="M661.87,-242.85C663.22,-228.31 668.24,-159.05 647.6,-108.6 646.16,-105.08 644.25,-101.63 642.1,-98.35"/>
<polygon fill="black" stroke="black" points="644.78,-96.08 636.01,-90.13 639.15,-100.25 644.78,-96.08"/>
<text text-anchor="middle" x="713.1" y="-155.9" font-family="Times,serif" font-size="14.00">input_exp_design2</text>
</g>
<!-- p7&#45;&gt;p24 -->
<g id="edge11" class="edge">
<title>p7&#45;&gt;p24</title>
<path fill="none" stroke="black" d="M658.49,-244.7C645.32,-240.85 592.94,-225.4 550.6,-210.6 533.07,-204.47 529.28,-201.27 511.6,-195.6 484.95,-187.05 454.85,-179.09 429.84,-172.92"/>
<polygon fill="black" stroke="black" points="430.36,-169.45 419.82,-170.48 428.71,-176.25 430.36,-169.45"/>
<text text-anchor="middle" x="599.1" y="-199.4" font-family="Times,serif" font-size="14.00">input_exp_design</text>
</g>
<!-- p24&#45;&gt;p27 -->
<g id="edge34" class="edge">
<title>p24&#45;&gt;p27</title>
<path fill="none" stroke="black" d="M429.04,-155.03C466.08,-150.96 516.11,-142.24 556.6,-123.6 564.61,-119.91 580.03,-107.71 593.62,-96.28"/>
<polygon fill="black" stroke="black" points="595.99,-98.86 601.33,-89.71 591.45,-93.53 595.99,-98.86"/>
<text text-anchor="middle" x="610.6" y="-112.4" font-family="Times,serif" font-size="14.00">stdprotquant</text>
</g>
<!-- p24&#45;&gt;p27 -->
<g id="edge35" class="edge">
<title>p24&#45;&gt;p27</title>
<path fill="none" stroke="black" d="M370,-141.35C367.14,-130.69 365.96,-117.4 373.6,-108.6 396.48,-82.24 488.75,-75.22 553.53,-73.62"/>
<polygon fill="black" stroke="black" points="553.75,-77.12 563.67,-73.41 553.6,-70.12 553.75,-77.12"/>
<text text-anchor="middle" x="406.6" y="-112.4" font-family="Times,serif" font-size="14.00">stdpepquant</text>
</g>
<!-- p24&#45;&gt;p27 -->
<g id="edge36" class="edge">
<title>p24&#45;&gt;p27</title>
<path fill="none" stroke="black" d="M404.77,-144.21C415.86,-138.22 428.56,-130.95 439.6,-123.6 448.55,-117.63 448.87,-113.19 458.6,-108.6 489.27,-94.11 526.08,-85.54 556.75,-80.51"/>
<polygon fill="black" stroke="black" points="557.56,-83.92 566.9,-78.93 556.49,-77.01 557.56,-83.92"/>
<text text-anchor="middle" x="505.6" y="-112.4" font-family="Times,serif" font-size="14.00">exp_design_final</text>
</g>
<!-- p25 -->
<g id="node27" class="node">
<title>p25</title>
<ellipse fill="black" stroke="black" cx="255.6" cy="-72.6" rx="1.8" ry="1.8"/>
</g>
<!-- p24&#45;&gt;p25 -->
<g id="edge33" class="edge">
<title>p24&#45;&gt;p25</title>
<path fill="none" stroke="black" d="M323.16,-156.78C298.88,-152.96 272.17,-143.93 256.6,-123.6 247.99,-112.36 249.95,-95.14 252.5,-84.13"/>
<polygon fill="black" stroke="black" points="255.89,-84.99 255.3,-74.41 249.17,-83.05 255.89,-84.99"/>
<text text-anchor="middle" x="303.6" y="-112.4" font-family="Times,serif" font-size="14.00">msqrob_prot_out</text>
</g>
<!-- p14 -->
<g id="node19" class="node">
<title>p14</title>
<ellipse fill="none" stroke="black" cx="444.6" cy="-478.8" rx="75.29" ry="18"/>
<text text-anchor="middle" x="444.6" y="-475.1" font-family="Times,serif" font-size="14.00">run_peptideshaker</text>
</g>
<!-- p12&#45;&gt;p14 -->
<g id="edge18" class="edge">
<title>p12&#45;&gt;p14</title>
<path fill="none" stroke="black" d="M395.15,-547.6C404.11,-535.31 416.32,-518.57 426.36,-504.81"/>
<polygon fill="black" stroke="black" points="429.22,-506.83 432.28,-496.69 423.56,-502.7 429.22,-506.83"/>
<text text-anchor="middle" x="455.6" y="-518.6" font-family="Times,serif" font-size="14.00">searchgui_out</text>
</g>
<!-- p19 -->
<g id="node25" class="node">
<title>p19</title>
<ellipse fill="none" stroke="black" cx="266.6" cy="-246.6" rx="57.69" ry="18"/>
<text text-anchor="middle" x="266.6" y="-242.9" font-family="Times,serif" font-size="14.00">flashLFQ_all</text>
</g>
<!-- p18&#45;&gt;p19 -->
<g id="edge26" class="edge">
<title>p18&#45;&gt;p19</title>
<path fill="none" stroke="black" d="M94.33,-518.66C93.29,-508.22 89.6,-468.82 89.6,-436.3 89.6,-436.3 89.6,-436.3 89.6,-318.2 89.6,-269.3 148.61,-253.33 198.49,-248.57"/>
<polygon fill="black" stroke="black" points="198.96,-252.04 208.64,-247.74 198.39,-245.06 198.96,-252.04"/>
</g>
<!-- p11&#45;&gt;p12 -->
<g id="edge17" class="edge">
<title>p11&#45;&gt;p12</title>
<path fill="none" stroke="black" d="M499.05,-649.1C497.23,-640.83 490.65,-615.59 475.6,-601.8 467.52,-594.39 457.72,-588.51 447.55,-583.85"/>
<polygon fill="black" stroke="black" points="448.72,-580.54 438.15,-579.9 446.01,-587 448.72,-580.54"/>
</g>
<!-- p13&#45;&gt;p14 -->
<g id="edge19" class="edge">
<title>p13&#45;&gt;p14</title>
<path fill="none" stroke="black" d="M536.1,-605.71C533.74,-593.97 522.71,-545.16 497.6,-514.8 493.49,-509.84 488.5,-505.32 483.25,-501.3"/>
<polygon fill="black" stroke="black" points="485.04,-498.28 474.85,-495.4 481.02,-504.01 485.04,-498.28"/>
</g>
<!-- p10 -->
<g id="node18" class="node">
<title>p10</title>
<ellipse fill="none" stroke="black" cx="369.6" cy="-652.8" rx="108.58" ry="18"/>
<text text-anchor="middle" x="369.6" y="-649.1" font-family="Times,serif" font-size="14.00">create_searchgui_paramfile</text>
</g>
<!-- p10&#45;&gt;p12 -->
<g id="edge16" class="edge">
<title>p10&#45;&gt;p12</title>
<path fill="none" stroke="black" d="M372.23,-634.6C374.01,-622.96 376.4,-607.35 378.43,-594.04"/>
<polygon fill="black" stroke="black" points="381.92,-594.39 379.97,-583.98 375,-593.33 381.92,-594.39"/>
<text text-anchor="middle" x="424.6" y="-605.6" font-family="Times,serif" font-size="14.00">searchgui_param</text>
</g>
<!-- p15 -->
<g id="node20" class="node">
<title>p15</title>
<ellipse fill="none" stroke="black" cx="444.6" cy="-391.8" rx="89.08" ry="18"/>
<text text-anchor="middle" x="444.6" y="-388.1" font-family="Times,serif" font-size="14.00">get_peptideshaker_tsv</text>
</g>
<!-- p14&#45;&gt;p15 -->
<g id="edge20" class="edge">
<title>p14&#45;&gt;p15</title>
<path fill="none" stroke="black" d="M444.6,-460.6C444.6,-448.96 444.6,-433.35 444.6,-420.04"/>
<polygon fill="black" stroke="black" points="448.1,-419.98 444.6,-409.98 441.1,-419.98 448.1,-419.98"/>
<text text-anchor="middle" x="514.1" y="-431.6" font-family="Times,serif" font-size="14.00">peptideshaker_file_gettsv</text>
</g>
<!-- p16 -->
<g id="node21" class="node">
<title>p16</title>
<ellipse fill="black" stroke="black" cx="486.6" cy="-319.2" rx="1.8" ry="1.8"/>
</g>
<!-- p15&#45;&gt;p16 -->
<g id="edge21" class="edge">
<title>p15&#45;&gt;p16</title>
<path fill="none" stroke="black" d="M454.77,-373.71C462.95,-359.95 474.16,-341.11 480.86,-329.85"/>
<polygon fill="black" stroke="black" points="484.01,-331.41 486.11,-321.02 477.99,-327.83 484.01,-331.41"/>
<text text-anchor="middle" x="536.1" y="-344.6" font-family="Times,serif" font-size="14.00">peptideshaker_tsv_file</text>
</g>
<!-- p22 -->
<g id="node22" class="node">
<title>p22</title>
<ellipse fill="none" stroke="black" cx="129.6" cy="-290.1" rx="3.5" ry="3.5"/>
<text text-anchor="middle" x="107.6" y="-297.4" font-family="Times,serif" font-size="14.00">collect</text>
</g>
<!-- p15&#45;&gt;p22 -->
<g id="edge22" class="edge">
<title>p15&#45;&gt;p22</title>
<path fill="none" stroke="black" d="M359.17,-386.59C273.18,-381.5 151.07,-371.59 135.6,-355.8 122.29,-342.21 123.91,-318.46 126.57,-303.82"/>
<polygon fill="black" stroke="black" points="130.04,-304.32 128.82,-293.79 123.21,-302.78 130.04,-304.32"/>
<text text-anchor="middle" x="209.1" y="-344.6" font-family="Times,serif" font-size="14.00">peptideshaker_peptide_file</text>
</g>
<!-- p23 -->
<g id="node23" class="node">
<title>p23</title>
<ellipse fill="none" stroke="black" cx="574.6" cy="-290.1" rx="3.5" ry="3.5"/>
<text text-anchor="middle" x="552.6" y="-297.4" font-family="Times,serif" font-size="14.00">collect</text>
</g>
<!-- p15&#45;&gt;p23 -->
<g id="edge23" class="edge">
<title>p15&#45;&gt;p23</title>
<path fill="none" stroke="black" d="M521.58,-382.73C555.97,-377.38 591.12,-368.87 601.6,-355.8 615.33,-338.67 596.31,-313.56 583.87,-300.22"/>
<polygon fill="black" stroke="black" points="586.33,-297.73 576.8,-293.1 581.37,-302.66 586.33,-297.73"/>
<text text-anchor="middle" x="678.1" y="-344.6" font-family="Times,serif" font-size="14.00">peptideshaker_protein_file</text>
</g>
<!-- p17 -->
<g id="node24" class="node">
<title>p17</title>
<ellipse fill="none" stroke="black" cx="287.6" cy="-319.2" rx="3.5" ry="3.5"/>
<text text-anchor="middle" x="265.6" y="-326.5" font-family="Times,serif" font-size="14.00">collect</text>
</g>
<!-- p15&#45;&gt;p17 -->
<g id="edge24" class="edge">
<title>p15&#45;&gt;p17</title>
<path fill="none" stroke="black" d="M370.37,-381.73C337.38,-376.14 303.53,-367.73 292.6,-355.8 287.02,-349.71 285.87,-340.41 286.07,-332.84"/>
<polygon fill="black" stroke="black" points="289.55,-333.15 287.07,-322.85 282.59,-332.45 289.55,-333.15"/>
<text text-anchor="middle" x="377.1" y="-344.6" font-family="Times,serif" font-size="14.00">peptideshaker_tsv_file_filtered</text>
</g>
<!-- p22&#45;&gt;p24 -->
<g id="edge31" class="edge">
<title>p22&#45;&gt;p24</title>
<path fill="none" stroke="black" d="M129.45,-286.59C128.85,-274.4 127.99,-220.89 156.6,-195.6 179.28,-175.56 256.46,-166.94 313.02,-163.27"/>
<polygon fill="black" stroke="black" points="313.55,-166.74 323.32,-162.64 313.13,-159.76 313.55,-166.74"/>
</g>
<!-- p23&#45;&gt;p24 -->
<g id="edge32" class="edge">
<title>p23&#45;&gt;p24</title>
<path fill="none" stroke="black" d="M572.77,-287.03C563.01,-276.12 515.77,-224.65 467.6,-195.6 454.53,-187.72 439.37,-181.04 425.22,-175.71"/>
<polygon fill="black" stroke="black" points="426.22,-172.35 415.63,-172.23 423.83,-178.93 426.22,-172.35"/>
</g>
<!-- p17&#45;&gt;p19 -->
<g id="edge25" class="edge">
<title>p17&#45;&gt;p19</title>
<path fill="none" stroke="black" d="M286.8,-315.52C284.8,-308.78 279.38,-290.55 274.65,-274.68"/>
<polygon fill="black" stroke="black" points="277.9,-273.31 271.69,-264.73 271.19,-275.31 277.9,-273.31"/>
</g>
<!-- p19&#45;&gt;p24 -->
<g id="edge28" class="edge">
<title>p19&#45;&gt;p24</title>
<path fill="none" stroke="black" d="M314.75,-236.26C330.78,-231.05 347.6,-222.99 359.6,-210.6 365.68,-204.33 369.58,-195.8 372.1,-187.56"/>
<polygon fill="black" stroke="black" points="375.5,-188.38 374.52,-177.83 368.71,-186.69 375.5,-188.38"/>
<text text-anchor="middle" x="416.6" y="-199.4" font-family="Times,serif" font-size="14.00">flashlfq_peptides</text>
</g>
<!-- p19&#45;&gt;p24 -->
<g id="edge29" class="edge">
<title>p19&#45;&gt;p24</title>
<path fill="none" stroke="black" d="M260.38,-228.28C257.8,-217.84 256.79,-204.84 263.6,-195.6 275.43,-179.55 294.54,-170.64 313.7,-165.76"/>
<polygon fill="black" stroke="black" points="314.68,-169.13 323.69,-163.56 313.17,-162.3 314.68,-169.13"/>
<text text-anchor="middle" x="309.6" y="-199.4" font-family="Times,serif" font-size="14.00">flashlfq_proteins</text>
</g>
<!-- p20 -->
<g id="node26" class="node">
<title>p20</title>
<ellipse fill="black" stroke="black" cx="164.6" cy="-159.6" rx="1.8" ry="1.8"/>
</g>
<!-- p19&#45;&gt;p20 -->
<g id="edge27" class="edge">
<title>p19&#45;&gt;p20</title>
<path fill="none" stroke="black" d="M213.27,-239.53C195.2,-234.66 176.79,-225.99 165.6,-210.6 157.27,-199.14 159.15,-181.99 161.61,-171.04"/>
<polygon fill="black" stroke="black" points="164.98,-171.98 164.31,-161.41 158.24,-170.09 164.98,-171.98"/>
<text text-anchor="middle" x="205.1" y="-199.4" font-family="Times,serif" font-size="14.00">flashlfq_peaks</text>
</g>
<!-- p26 -->
<g id="node28" class="node">
<title>p26</title>
<ellipse fill="black" stroke="black" cx="825.6" cy="-159.6" rx="3.6" ry="3.6"/>
</g>
<!-- p26&#45;&gt;p27 -->
<g id="edge37" class="edge">
<title>p26&#45;&gt;p27</title>
<path fill="none" stroke="black" d="M825.27,-155.79C824.1,-147.19 819.33,-121.12 803.6,-108.6 785.15,-93.92 728.55,-84.64 682.95,-79.35"/>
<polygon fill="black" stroke="black" points="683.14,-75.85 672.81,-78.22 682.36,-82.81 683.14,-75.85"/>
<text text-anchor="middle" x="824.1" y="-112.4" font-family="Times,serif" font-size="14.00">foo</text>
</g>
</g>
</svg>
